<?xml version="1.0" standalone="no"?>
<!DOCTYPE svg PUBLIC "-//W3C//DTD SVG 20010904//EN"
 "http://www.w3.org/TR/2001/REC-SVG-20010904/DTD/svg10.dtd">
<svg version="1.0" xmlns="http://www.w3.org/2000/svg"
 width="260.000000pt" height="260.000000pt" viewBox="0 0 260.000000 260.000000"
 preserveAspectRatio="xMidYMid meet">
<metadata>
Created by potrace 1.11, written by Peter Selinger 2001-2013
</metadata>
<g transform="translate(0.000000,260.000000) scale(0.100000,-0.100000)"
fill="#000000" stroke="none">
<path d="M1100 2399 c-16 -22 -19 -33 -11 -48 6 -11 16 -21 22 -23 9 -3 9 -17
0 -55 -7 -29 -14 -73 -16 -99 -2 -26 -8 -51 -12 -55 -10 -10 -53 0 -53 12 0 5
-5 9 -12 9 -20 0 9 -24 44 -36 31 -10 32 -12 34 -75 2 -35 7 -84 13 -109 5
-24 9 -45 8 -45 -1 0 -15 -7 -32 -16 -22 -11 -29 -21 -27 -37 2 -15 -7 -28
-35 -46 -64 -41 -189 -170 -192 -198 -1 -5 -11 -29 -23 -55 -33 -75 -37 -86
-41 -113 -2 -14 -8 -34 -12 -45 -9 -19 -12 -242 -5 -302 3 -18 8 -33 12 -33 4
0 8 -9 8 -19 0 -26 56 -130 88 -164 14 -15 47 -39 72 -54 25 -14 47 -28 50
-30 11 -10 8 -365 -4 -425 -14 -68 -4 -121 29 -155 10 -10 13 -18 6 -22 -12
-8 -27 -75 -27 -121 l1 -35 54 0 c40 0 55 4 57 15 14 88 29 110 22 33 l-5 -53
298 0 299 0 0 42 c0 47 16 42 22 -7 3 -29 4 -30 67 -33 l63 -3 -6 47 c-3 26
-16 67 -29 92 l-23 44 20 41 c62 126 -27 281 -152 263 -26 -4 -52 -7 -59 -8
-7 -1 -14 -7 -17 -15 -5 -11 -13 -10 -45 7 -22 11 -49 20 -60 20 -23 0 -29 13
-36 88 -18 164 -9 200 49 223 47 19 137 82 193 136 57 54 89 109 99 168 3 22
9 44 12 49 10 16 11 281 1 322 -5 21 -11 55 -14 74 -9 58 -48 148 -85 198 -35
45 -107 98 -145 106 -11 3 -51 11 -90 20 -43 9 -101 13 -151 10 -57 -2 -85 0
-92 9 -9 12 -45 126 -57 184 -5 27 -3 32 16 35 12 2 29 14 38 28 l16 25 -29
-23 c-40 -31 -51 -28 -53 18 l-3 40 37 -15 c49 -21 55 -10 7 12 -48 22 -51 26
-48 66 3 54 4 57 19 57 9 0 21 11 27 25 14 31 -3 75 -29 76 -10 0 -26 2 -35 4
-11 2 -26 -9 -38 -26z"/>
<path d="M1043 2188 c-12 -6 -24 -17 -27 -25 -5 -12 25 4 63 34 9 7 -15 1 -36
-9z"/>
</g>
</svg>
